PathFileType	4	(X/Y/Z)	RBDS027static.trc
DataRate	CameraRate	NumFrames	NumMarkers	Units	OrigDataRate	OrigDataStartFrame	OrigNumFrames
150.000000	150.000000	4	48	mm	150.000000	37	150
Frame#	Time	L.Ankle			L.Ankle.Medial			L.ASIS			L.GTR			L.Heel.Bottom			L.Heel.Lateral			L.Heel.Top			L.HF			L.Iliac.Crest			L.Knee			L.Knee.Medial			L.MT1			L.MT2			L.MT5			L.PSIS			L.Shank.Bottom.Lateral			L.Shank.Bottom.Medial			L.Shank.Top.Lateral			L.Shank.Top.Medial			L.Thigh.Bottom.Lateral			L.Thigh.Bottom.Medial			L.Thigh.Top.Lateral			L.Thigh.Top.Medial			L.TT			R.Ankle			R.Ankle.Medial			R.ASIS			R.GTR			R.Heel.Bottom			R.Heel.Lateral			R.Heel.Top			R.HF			R.Iliac.Crest			R.Knee			R.Knee.Medial			R.MT1			R.MT2			R.MT5			R.PSIS			R.Shank.Bottom.Lateral			R.Shank.Bottom.Medial			R.Shank.Top.Lateral			R.Shank.Top.Medial			R.Thigh.Bottom.Lateral			R.Thigh.Bottom.Medial			R.Thigh.Top.Lateral			R.Thigh.Top.Medial			R.TT			
		X1	Y1	Z1	X2	Y2	Z2	X3	Y3	Z3	X4	Y4	Z4	X5	Y5	Z5	X6	Y6	Z6	X7	Y7	Z7	X8	Y8	Z8	X9	Y9	Z9	X10	Y10	Z10	X11	Y11	Z11	X12	Y12	Z12	X13	Y13	Z13	X14	Y14	Z14	X15	Y15	Z15	X16	Y16	Z16	X17	Y17	Z17	X18	Y18	Z18	X19	Y19	Z19	X20	Y20	Z20	X21	Y21	Z21	X22	Y22	Z22	X23	Y23	Z23	X24	Y24	Z24	X25	Y25	Z25	X26	Y26	Z26	X27	Y27	Z27	X28	Y28	Z28	X29	Y29	Z29	X30	Y30	Z30	X31	Y31	Z31	X32	Y32	Z32	X33	Y33	Z33	X34	Y34	Z34	X35	Y35	Z35	X36	Y36	Z36	X37	Y37	Z37	X38	Y38	Z38	X39	Y39	Z39	X40	Y40	Z40	X41	Y41	Z41	X42	Y42	Z42	X43	Y43	Z43	X44	Y44	Z44	X45	Y45	Z45	X46	Y46	Z46	X47	Y47	Z47	X48	Y48	Z48	

38	0.2466666666666667	711.5596923828125	96.26633453369141	1046.615844726563	728.4122924804688	100.8534088134766	1125.60107421875	815.0325927734375	920.3966674804688	1084.577026367188	745.6178588867188	834.8651123046875	1044.36474609375	637.2732543945313	33.47119522094727	1084.048095703125	669.4619750976563	55.54253387451172	1041.047485351563	649.627685546875	82.12192535400391	1086.59521484375	701.60888671875	418.2077331542969	1037.091674804688	758.7698364257813	992.9804077148438	1060.970336914063	714.1880493164063	475.3269348144531	1046.682250976563	705.3076782226563	463.0032348632813	1167.65771484375	853.37255859375	52.55317306518555	1128.138671875	860.9954223632813	64.94522094726563	1082.517578125	821.7899780273438	48.39917373657227	1017.536376953125	661.4728393554688	953.2966918945313	1179.421508789063	695.6546630859375	161.2741088867188	1035.620849609375	660.109130859375	155.5709838867188	1077.99267578125	671.7142944335938	237.8814697265625	1027.95068359375	641.1966552734375	233.9343566894531	1072.420288085938	705.4297485351563	587.4930419921875	1028.041137695313	653.2630615234375	586.6910400390625	1077.083251953125	702.1798095703125	697.6841430664063	1030.407592773438	655.2539672851563	697.2280883789063	1080.107177734375	760.6925659179688	397.2390747070313	1087.9111328125	709.037109375	97.111572265625	1405.2705078125	732.8343505859375	111.300666809082	1328.535400390625	831.8690795898438	928.8156127929688	1352.255126953125	763.2145385742188	842.1950073242188	1403.835083007813	640.039306640625	37.69758987426758	1369.721069335938	672.691650390625	55.27157211303711	1410.880737304688	649.239990234375	82.87559509277344	1369.69091796875	726.9976196289063	427.8244018554688	1419.114624023438	776.9639892578125	1006.562316894531	1373.835083007813	726.0388793945313	488.6532897949219	1410.213012695313	721.2933959960938	471.3310241699219	1290.400756835938	852.963134765625	51.54995346069336	1316.751342773438	860.398193359375	67.55390167236328	1366.8583984375	826.19921875	47.51511001586914	1432.633666992188	670.4065551757813	955.5865478515625	1277.478149414063	696.8525390625	160.0165710449219	1412.874389648438	663.8656005859375	166.4950866699219	1374.223388671875	687.8562622070313	242.9502716064453	1431.220703125	653.3219604492188	244.7490997314453	1390.311767578125	731.9024658203125	574.408203125	1425.728149414063	672.0545043945313	575.5404052734375	1382.654296875	728.556884765625	684.1539916992188	1427.109497070313	672.8533325195313	685.5687866210938	1385.222045898438	779.4049072265625	407.6953430175781	1367.546630859375	
39	0.2533333333333334	711.5546875	96.27316284179688	1046.618286132813	728.414306640625	100.8537750244141	1125.598022460938	814.977783203125	920.4069213867188	1084.621948242188	745.5693969726563	834.861083984375	1044.384887695313	637.2731323242188	33.46997451782227	1084.047119140625	669.4684448242188	55.54521942138672	1041.039672851563	649.6343994140625	82.12030029296875	1086.59716796875	701.5816040039063	418.2167053222656	1037.099487304688	758.683837890625	992.96826171875	1061.015380859375	714.16552734375	475.3260803222656	1046.702026367188	705.2798461914063	462.986572265625	1167.664672851563	853.3638916015625	52.55966567993164	1128.121337890625	860.9923095703125	64.94628143310547	1082.511474609375	821.7883911132813	48.39992904663086	1017.53515625	661.3955688476563	953.2865600585938	1179.452514648438	695.65478515625	161.2736663818359	1035.632934570313	660.1012573242188	155.5673370361328	1077.995971679688	671.698486328125	237.885986328125	1027.95556640625	641.1827392578125	233.9269561767578	1072.431396484375	705.3982543945313	587.4902954101563	1028.057861328125	653.2379760742188	586.6859741210938	1077.099853515625	702.1373901367188	697.6818237304688	1030.439697265625	655.2092895507813	697.228759765625	1080.123291015625	760.6634521484375	397.2430419921875	1087.91259765625	709.0390625	97.11721038818359	1405.277221679688	732.8410034179688	111.2867736816406	1328.546752929688	831.8050537109375	928.8242797851563	1352.284423828125	763.1552124023438	842.1842041015625	1403.879638671875	640.0499267578125	37.68700790405273	1369.723876953125	672.6947631835938	55.26332855224609	1410.8837890625	649.2470092773438	82.87834930419922	1369.7001953125	726.9588012695313	427.8153991699219	1419.131713867188	776.9033203125	1006.562316894531	1373.870239257813	726.0029296875	488.6445617675781	1410.230346679688	721.2538452148438	471.3381042480469	1290.416870117188	852.9601440429688	51.55104064941406	1316.748413085938	860.3961181640625	67.56145477294922	1366.864868164063	826.2147216796875	47.51089096069336	1432.640380859375	670.3474731445313	955.5693359375	1277.51123046875	696.84765625	160.0189361572266	1412.880126953125	663.853515625	166.4896240234375	1374.23974609375	687.8468017578125	242.9415435791016	1431.232421875	653.30419921875	244.7328948974609	1390.323120117188	731.8577270507813	574.4038696289063	1425.75537109375	671.9992065429688	575.53564453125	1382.668701171875	728.5070190429688	684.1537475585938	1427.142700195313	672.801513671875	685.5578002929688	1385.2392578125	779.3665771484375	407.6964416503906	1367.557861328125	
40	0.26	711.5577392578125	96.27797698974609	1046.620727539063	728.4258422851563	100.849494934082	1125.60400390625	814.9259643554688	920.41064453125	1084.672607421875	745.515869140625	834.8574829101563	1044.411254882813	637.27001953125	33.47212600708008	1084.04296875	669.4646606445313	55.54689407348633	1041.03955078125	649.6366577148438	82.11563110351563	1086.5908203125	701.5557861328125	418.2142028808594	1037.123901367188	758.6128540039063	992.9756469726563	1061.070068359375	714.1275634765625	475.3280639648438	1046.717529296875	705.2598876953125	462.9778137207031	1167.698364257813	853.3763427734375	52.55544662475586	1128.130615234375	860.9967651367188	64.93923950195313	1082.512939453125	821.79150390625	48.3997802734375	1017.541381835938	661.3297729492188	953.2736206054688	1179.481323242188	695.647216796875	161.2642059326172	1035.629272460938	660.0938110351563	155.5579223632813	1078.00390625	671.6952514648438	237.8747406005859	1027.967529296875	641.1776123046875	233.9221954345703	1072.440795898438	705.3618774414063	587.4869384765625	1028.08447265625	653.2106323242188	586.6735229492188	1077.113403320313	702.108642578125	697.6784057617188	1030.4697265625	655.167724609375	697.2152709960938	1080.141479492188	760.6515502929688	397.2546691894531	1087.92724609375	709.0444946289063	97.11222076416016	1405.281494140625	732.8201293945313	111.2998580932617	1328.547607421875	831.728515625	928.8226318359375	1352.327392578125	763.0889282226563	842.183837890625	1403.916259765625	640.0441284179688	37.69781112670898	1369.71533203125	672.697265625	55.26011276245117	1410.881713867188	649.2367553710938	82.87545013427734	1369.69970703125	726.922607421875	427.8194274902344	1419.155517578125	776.8475952148438	1006.56982421875	1373.89453125	725.9623413085938	488.6336059570313	1410.240112304688	721.228759765625	471.3284912109375	1290.441650390625	852.96142578125	51.54172515869141	1316.755615234375	860.396728515625	67.55683135986328	1366.869384765625	826.2079467773438	47.50744247436523	1432.640869140625	670.2896728515625	955.5556030273438	1277.5546875	696.8363037109375	160.0065765380859	1412.887573242188	663.8418579101563	166.4778594970703	1374.247192382813	687.8279418945313	242.9349517822266	1431.2451171875	653.2879028320313	244.7211608886719	1390.331909179688	731.8096923828125	574.4087524414063	1425.78759765625	671.962158203125	575.5279541015625	1382.69384765625	728.4525146484375	684.1471557617188	1427.165283203125	672.7382202148438	685.5470581054688	1385.262084960938	779.3330688476563	407.7056579589844	1367.594970703125	
41	0.2666666666666667	711.5624389648438	96.27338409423828	1046.615234375	728.414794921875	100.8453903198242	1125.607666015625	814.8694458007813	920.4171142578125	1084.706176757813	745.4588012695313	834.8433837890625	1044.426391601563	637.2662963867188	33.47193908691406	1084.04736328125	669.4666137695313	55.5515022277832	1041.044067382813	649.6322631835938	82.11847686767578	1086.594604492188	701.5338134765625	418.2139892578125	1037.130249023438	758.5562133789063	992.97216796875	1061.115600585938	714.0978393554688	475.3325805664063	1046.727416992188	705.1986694335938	462.9858703613281	1167.712280273438	853.3693237304688	52.56521987915039	1128.126220703125	861.0025024414063	64.94718933105469	1082.508178710938	821.7918701171875	48.39680480957031	1017.543884277344	661.2412109375	953.2650756835938	1179.514770507813	695.6349487304688	161.2772216796875	1035.63671875	660.0927124023438	155.5573577880859	1078.0029296875	671.6849975585938	237.876708984375	1027.967407226563	641.1610107421875	233.9076080322266	1072.445556640625	705.3392333984375	587.4917602539063	1028.110717773438	653.1748657226563	586.6695556640625	1077.129760742188	702.0614624023438	697.67236328125	1030.492065429688	655.1135864257813	697.2048950195313	1080.161865234375	760.6378784179688	397.256103515625	1087.959228515625	709.0367431640625	97.10835266113281	1405.27392578125	732.8204956054688	111.2950973510742	1328.541870117188	831.6639404296875	928.83837890625	1352.34521484375	763.0023193359375	842.1885375976563	1403.949340820313	640.039794921875	37.68373489379883	1369.722290039063	672.7003173828125	55.25952529907227	1410.888061523438	649.2388916015625	82.871826171875	1369.701538085938	726.8916625976563	427.8210144042969	1419.1767578125	776.775390625	1006.581359863281	1373.9287109375	725.9261474609375	488.6310729980469	1410.26318359375	721.195556640625	471.3326110839844	1290.466064453125	852.9599609375	51.55251693725586	1316.755126953125	860.395751953125	67.55901336669922	1366.865356445313	826.2135620117188	47.50977325439453	1432.64697265625	670.2257690429688	955.5493774414063	1277.583740234375	696.8289184570313	160.0006866455078	1412.888916015625	663.8299560546875	166.4618225097656	1374.24169921875	687.9168701171875	242.8634796142578	1431.511474609375	653.2669067382813	244.7055206298828	1390.3349609375	731.7613525390625	574.4047241210938	1425.797973632813	671.9112548828125	575.5120239257813	1382.715942382813	728.3922119140625	684.1384887695313	1427.198364257813	672.67724609375	685.53271484375	1385.285888671875	779.3036499023438	407.7148742675781	1367.604125976563	
